<svg xmlns="http://www.w3.org/2000/svg" xmlns:xlink="http://www.w3.org/1999/xlink" width="500" zoomAndPan="magnify" viewBox="0 0 375 374.999991" height="500" preserveAspectRatio="xMidYMid meet" version="1.0"><defs><g/></defs><rect x="-37.5" width="450" fill="#ffffff" y="-37.499999" height="449.999989" fill-opacity="1"/><rect x="-37.5" width="450" fill="#ffffff" y="-37.499999" height="449.999989" fill-opacity="1"/><rect x="-37.5" width="450" fill="#2c414a" y="-37.499999" height="449.999989" fill-opacity="1"/><g fill="#aa7b1d" fill-opacity="1"><g transform="translate(87.093518, 204.069164)"><g><path d="M 113.6875 -94.03125 L 110.3125 -94.03125 C 108.664062 -107.25 101.523438 -113.859375 88.890625 -113.859375 L 68.53125 -113.859375 L 68.53125 -16.640625 C 68.53125 -11.328125 70.0625 -7.753906 73.125 -5.921875 C 76.195312 -4.097656 80.566406 -3.1875 86.234375 -3.1875 L 86.234375 0 L 31.703125 0 L 31.703125 -3.1875 C 37.953125 -3.1875 42.460938 -4.25 45.234375 -6.375 C 48.015625 -8.5 49.40625 -12.335938 49.40625 -17.890625 L 49.40625 -113.859375 L 27.796875 -113.859375 C 22.253906 -113.859375 17.625 -112.234375 13.90625 -108.984375 C 10.1875 -105.742188 8.085938 -100.757812 7.609375 -94.03125 L 4.421875 -94.03125 L 5.3125 -121.65625 L 112.796875 -121.65625 Z M 113.6875 -94.03125 "/></g></g></g><g fill="#aa7b1d" fill-opacity="1"><g transform="translate(148.994647, 264.308054)"><g><path d="M 104.828125 -89.25 C 104.828125 -82.632812 102.816406 -76.96875 98.796875 -72.25 C 94.785156 -67.53125 89.359375 -64.34375 82.515625 -62.6875 L 82.515625 -62.328125 C 90.773438 -61.035156 97.441406 -57.582031 102.515625 -51.96875 C 107.597656 -46.363281 110.140625 -39.898438 110.140625 -32.578125 C 110.140625 -26.328125 108.457031 -20.722656 105.09375 -15.765625 C 101.726562 -10.804688 96.859375 -6.9375 90.484375 -4.15625 C 84.109375 -1.382812 76.613281 0 68 0 L 7.265625 0 L 7.265625 -3.1875 C 12.222656 -3.1875 15.941406 -3.742188 18.421875 -4.859375 C 20.898438 -5.984375 22.609375 -7.785156 23.546875 -10.265625 C 24.492188 -12.742188 24.96875 -16.347656 24.96875 -21.078125 L 24.96875 -99.6875 C 24.96875 -104.769531 24.523438 -108.609375 23.640625 -111.203125 C 22.753906 -113.796875 21.070312 -115.625 18.59375 -116.6875 C 16.113281 -117.75 12.335938 -118.34375 7.265625 -118.46875 L 7.265625 -121.65625 L 59.671875 -121.65625 C 66.753906 -121.65625 73.6875 -120.679688 80.46875 -118.734375 C 87.257812 -116.785156 93.015625 -113.390625 97.734375 -108.546875 C 102.460938 -103.703125 104.828125 -97.269531 104.828125 -89.25 Z M 44.09375 -114.5625 L 44.09375 -67.296875 C 50.46875 -65.992188 55.367188 -65.34375 58.796875 -65.34375 C 63.628906 -65.34375 67.960938 -66.429688 71.796875 -68.609375 C 75.640625 -70.796875 78.648438 -73.75 80.828125 -77.46875 C 83.015625 -81.1875 84.109375 -85.289062 84.109375 -89.78125 C 84.109375 -97.21875 81.570312 -103.414062 76.5 -108.375 C 71.425781 -113.332031 64.640625 -115.8125 56.140625 -115.8125 C 52.117188 -115.8125 48.101562 -115.394531 44.09375 -114.5625 Z M 44.09375 -58.96875 L 44.09375 -8.5 C 49.164062 -6.96875 54.066406 -6.203125 58.796875 -6.203125 C 67.648438 -6.203125 74.726562 -8.59375 80.03125 -13.375 C 85.34375 -18.15625 88 -24.441406 88 -32.234375 C 88 -40.492188 84.78125 -47.101562 78.34375 -52.0625 C 71.914062 -57.019531 63.15625 -59.5 52.0625 -59.5 C 50.175781 -59.5 47.519531 -59.320312 44.09375 -58.96875 Z M 44.09375 -58.96875 "/></g></g></g></svg>